<?xml version="1.0" encoding="UTF-8"?> <svg xmlns="http://www.w3.org/2000/svg" width="170" height="36" viewBox="0 0 170 36" fill="none"><g clip-path="url(#clip0_1_2611)"><path d="M162.81 27.1757C161.704 27.1757 160.586 27.1757 159.479 27.1757C154.791 27.1757 150.103 27.1757 145.415 27.1757C145.027 27.1757 144.639 27.1529 144.24 27.1416C143.487 27.1074 142.962 26.686 142.517 26.1393C142.152 25.6951 142.038 25.1598 141.97 24.6017C141.935 24.317 141.924 24.0208 141.924 23.7361C141.924 18.9183 141.924 14.0892 141.924 9.2714C141.924 9.18028 141.924 9.10055 141.924 8.99805C143.886 8.99805 145.837 8.99805 147.81 8.99805C147.81 9.07777 147.81 9.14611 147.81 9.22584C147.81 13.3602 147.81 17.4832 147.821 21.6176C147.821 21.8226 147.867 22.0504 147.97 22.2327C148.107 22.506 148.403 22.5857 148.7 22.6085C149.088 22.6313 149.464 22.6541 149.852 22.6541C151.312 22.6541 152.783 22.6541 154.243 22.6541C154.312 22.6541 154.392 22.6541 154.483 22.6541C154.483 18.0983 154.483 13.5539 154.483 8.99805C156.445 8.99805 158.396 8.99805 160.369 8.99805C160.369 13.5425 160.369 18.0869 160.369 22.6541C161.202 22.6541 162.023 22.6541 162.833 22.6541C162.81 24.1575 162.81 25.6723 162.81 27.1757Z" fill="black"></path><path d="M0 26.0253C0.61597 25.4217 1.23194 24.8066 1.84791 24.203C2.72624 23.326 3.60457 22.4604 4.4829 21.5834C4.55134 21.5151 4.63119 21.4581 4.71103 21.3898C3.8213 20.5242 2.95438 19.6928 2.06464 18.8271C5.28138 18.8271 8.46389 18.8271 11.6464 18.8271C11.6464 22.2896 11.6464 25.7634 11.6464 29.2827C10.8137 28.0982 9.981 26.9593 9.19393 25.8659C7.61978 27.4035 6.04564 28.941 4.47149 30.49C4.46008 30.49 4.44868 30.49 4.43727 30.49C4.41446 30.4558 4.39164 30.4217 4.35742 30.3875C3.1597 29.1916 1.97339 27.9957 0.775667 26.8112C0.524716 26.5606 0.262358 26.3215 0.0114069 26.0709C0 26.0481 0 26.0367 0 26.0253Z" fill="black"></path><path d="M20.6579 30.4901C19.0837 28.9411 17.5096 27.4035 15.924 25.8546C15.1484 26.9366 14.3271 28.0869 13.5058 29.2259C13.4944 29.2259 13.4715 29.2145 13.4601 29.2145C13.4601 28.9867 13.4601 28.7475 13.4601 28.5197C13.4601 28.4969 13.4601 28.4855 13.4601 28.4628C13.4601 25.342 13.4487 22.2099 13.4487 19.0892C13.4487 18.8386 13.4487 18.8386 13.6997 18.8386C16.7453 18.85 19.7909 18.85 22.8366 18.8614C22.8936 18.8614 22.9506 18.8614 23.0647 18.8614C22.1522 19.7156 21.2852 20.5357 20.4297 21.3443C21.9811 22.9275 23.521 24.4878 25.0951 26.0824C24.7415 26.424 24.3765 26.7771 24.0115 27.1416C22.9392 28.2122 21.867 29.2828 20.7947 30.3648C20.7605 30.399 20.7263 30.4559 20.7035 30.4901C20.6807 30.4901 20.6693 30.4901 20.6579 30.4901Z" fill="#D20000"></path><path d="M102.023 16.7086C102.605 15.5241 103.175 14.3737 103.745 13.2234C104.418 11.868 105.091 10.5127 105.753 9.14594C105.821 9.00927 105.89 8.9751 106.038 8.9751C108.034 8.9751 110.031 8.9751 112.027 8.9751C112.084 8.9751 112.152 8.9751 112.244 8.9751C112.187 9.10038 112.129 9.20289 112.072 9.30539C108.936 15.114 105.799 20.9227 102.673 26.7314C102.491 27.073 102.308 27.1869 101.92 27.1869C100.038 27.1642 98.1675 27.1756 96.2853 27.1756C96.2169 27.1756 96.137 27.1756 96.0458 27.1756C96.0686 27.1186 96.08 27.0844 96.1028 27.0503C97.0268 25.4216 97.9393 23.7815 98.8633 22.1528C98.9317 22.0389 98.9203 21.9592 98.8633 21.8566C96.9241 18.4056 94.9964 14.9432 93.0572 11.4922C92.6351 10.7519 92.2245 10.0002 91.791 9.23706C91.6085 9.44207 91.4374 9.64708 91.2663 9.8407C89.3614 12.0958 87.4564 14.3623 85.5629 16.6289C85.3462 16.8908 85.1751 17.1869 85.0268 17.4831C84.81 17.9159 84.9469 18.3145 85.2093 18.679C85.4032 18.9523 85.6199 19.2143 85.8481 19.4535C88.0268 21.8225 90.2055 24.1915 92.3956 26.5605C92.5781 26.7541 92.7492 26.9478 92.9545 27.1756C92.8519 27.1756 92.7948 27.1756 92.7264 27.1756C90.5021 27.1756 88.2777 27.1756 86.042 27.1756C85.9279 27.1756 85.8481 27.1528 85.7796 27.0617C84.1484 24.9774 82.5059 22.8931 80.8747 20.7974C80.4868 20.3077 80.1218 19.7951 79.7682 19.2826C79.1522 18.4056 79.118 17.4831 79.6655 16.5605C80.0192 15.9683 80.4298 15.3988 80.829 14.8407C82.175 12.9387 83.5439 11.0366 84.8899 9.13455C84.9697 9.02066 85.061 8.9751 85.2093 8.9751C89.464 8.9751 93.7302 8.9751 97.985 8.9751C98.1447 8.9751 98.2245 9.02066 98.2929 9.16872C99.5021 11.6402 100.711 14.1004 101.92 16.5605C101.955 16.6061 101.977 16.6516 102.023 16.7086Z" fill="black"></path><path d="M51.8328 27.1643C51.8328 27.0846 51.8328 27.0049 51.8328 26.9365C51.8328 22.1074 51.8328 17.2782 51.8442 12.4491C51.8442 11.9479 51.9012 11.424 52.0153 10.9457C52.2776 9.88643 53.0533 9.33973 54.0685 9.10055C54.3879 9.02082 54.7301 8.99804 55.0609 8.99804C58.4145 8.98665 61.7681 8.98665 65.1218 8.99804C65.7719 8.99804 66.4221 9.06638 67.0609 9.19167C68.2586 9.41946 69.0229 10.2167 69.5476 11.2646C69.924 12.0163 70.0609 12.8249 70.1408 13.645C70.2434 14.6814 70.2434 15.7179 70.175 16.7657C70.1066 17.8021 69.867 18.8044 69.4564 19.7611C69.0001 20.7976 68.1902 21.4126 67.1065 21.686C66.3993 21.8682 65.6693 21.9365 64.9278 21.9365C62.6122 21.9252 60.2852 21.9365 57.9697 21.9365C57.8898 21.9365 57.81 21.9365 57.7073 21.9365C57.7073 23.6905 57.7073 25.4217 57.7073 27.1757C55.7453 27.1643 53.8062 27.1643 51.8328 27.1643ZM57.7187 17.3921C57.7643 17.4035 57.7871 17.4035 57.7986 17.4035C59.4754 17.3921 61.1636 17.4035 62.8404 17.3807C63.5818 17.3693 64.0381 16.9821 64.2434 16.2646C64.3575 15.8545 64.3689 15.4331 64.3461 15.0117C64.3119 14.5447 64.175 14.1461 63.7643 13.8614C63.502 13.6791 63.2054 13.5539 62.886 13.5539C62.1218 13.5311 61.3461 13.5197 60.5818 13.5083C59.9202 13.4969 59.27 13.4969 58.6084 13.5083C58.1065 13.5197 57.7529 13.8614 57.7415 14.3511C57.7301 15.1484 57.7301 15.9343 57.7301 16.7315C57.7187 16.9479 57.7187 17.1643 57.7187 17.3921Z" fill="black"></path><path d="M51.0342 27.1642C48.9581 27.1642 46.9163 27.1642 44.8517 27.1642C44.6007 26.515 44.3497 25.8658 44.0988 25.2166C43.8935 24.6699 43.6767 24.1232 43.4714 23.5652C43.4372 23.4627 43.3916 23.4285 43.2775 23.4285C41.1901 23.4285 39.1026 23.4285 37.0037 23.4285C36.8783 23.4285 36.8326 23.474 36.7984 23.5765C36.3649 24.7269 35.9315 25.8658 35.498 27.0162C35.4638 27.1073 35.441 27.187 35.3041 27.187C33.3193 27.1756 31.3345 27.187 29.3497 27.187C29.3269 27.187 29.3041 27.187 29.2471 27.1756C29.2699 27.1073 29.2927 27.0617 29.3155 27.0048C31.2889 22.2554 33.2737 17.5059 35.2471 12.7565C35.498 12.1415 35.7604 11.5378 36.0113 10.9228C36.4562 9.80661 37.2661 9.13463 38.441 8.91823C39.5589 8.71322 40.6881 8.70183 41.806 8.89545C42.8669 9.07768 43.6653 9.68133 44.133 10.6494C44.5551 11.5264 44.9087 12.4376 45.2851 13.3374C47.1786 17.8704 49.0608 22.4034 50.9429 26.9365C50.9771 27.0048 50.9999 27.0845 51.0342 27.1642ZM42.0113 19.2599C41.9201 19.0093 41.8402 18.7816 41.7604 18.5652C41.3155 17.3009 40.8592 16.0367 40.4144 14.7838C40.3459 14.613 40.2547 14.4421 40.1862 14.2713C40.152 14.2713 40.1178 14.2713 40.0836 14.2713C39.4334 15.9114 38.8973 17.597 38.2813 19.2713C39.5246 19.2599 40.7566 19.2599 42.0113 19.2599Z" fill="black"></path><path d="M127.415 22.6539C127.415 24.1687 127.415 25.6608 127.415 27.187C127.358 27.187 127.289 27.187 127.232 27.187C124.437 27.187 121.643 27.1984 118.837 27.1756C117.821 27.1756 116.806 27.1072 115.825 26.7997C113.863 26.1733 112.666 24.7952 112.004 22.8931C111.65 21.8681 111.548 20.7974 111.491 19.7154C111.411 18.2576 111.445 16.7997 111.605 15.3419C111.707 14.351 111.878 13.3715 112.335 12.4603C113.202 10.7405 114.593 9.70405 116.464 9.27125C117.399 9.05484 118.335 8.98651 119.293 8.98651C121.837 8.97512 124.38 8.98651 126.924 8.98651C126.981 8.98651 127.05 8.98651 127.118 8.9979C127.118 10.5013 127.118 11.9933 127.118 13.5081C127.038 13.5081 126.97 13.5081 126.89 13.5081C124.894 13.5081 122.909 13.4968 120.913 13.5195C120.513 13.5195 120.103 13.5765 119.726 13.6904C118.643 13.9979 118.004 14.7382 117.753 15.8202C117.399 17.3692 117.399 18.9409 117.696 20.4899C117.924 21.6858 118.563 22.2781 119.84 22.4945C120.525 22.6084 121.221 22.6425 121.917 22.6539C123.673 22.6767 125.43 22.6653 127.186 22.6653C127.244 22.6539 127.323 22.6539 127.415 22.6539Z" fill="black"></path><path d="M78.7074 27.1642C76.7454 27.1642 74.8062 27.1642 72.8442 27.1642C72.8442 21.105 72.8442 15.0572 72.8442 8.98657C74.7948 8.98657 76.7454 8.98657 78.7074 8.98657C78.7074 15.0458 78.7074 21.105 78.7074 27.1642Z" fill="black"></path><path d="M0.0227051 9.89774C1.5056 8.4171 2.97708 6.95924 4.44857 5.48999C6.01131 7.02758 7.57405 8.56516 9.1596 10.1255C9.98089 9.27131 10.8136 8.40571 11.6691 7.50594C11.6691 10.7178 11.6691 13.8955 11.6691 17.0731C8.498 17.0731 5.31549 17.0731 2.08735 17.0731C2.97708 16.2189 3.844 15.3989 4.68811 14.6016C3.11396 13.0299 1.57404 11.4695 0.0227051 9.89774Z" fill="#D20000"></path><path d="M23.0418 17.0846C19.8593 17.0846 16.6768 17.0846 13.4714 17.0846C13.4714 13.9069 13.4714 10.7179 13.4714 7.48324C14.327 8.3944 15.1482 9.2714 15.9581 10.137C17.5323 8.57664 19.095 7.03905 20.6578 5.50146C22.1292 6.97071 23.6007 8.43996 25.0722 9.90921C23.5323 11.4582 21.9924 13.0185 20.4296 14.6017C21.2965 15.4103 22.1749 16.2304 23.0532 17.0391C23.0418 17.0504 23.0418 17.0618 23.0418 17.0846Z" fill="#D20000"></path><path d="M139.825 18.1665C139.825 19.5332 139.825 20.8886 139.825 22.2553C136.118 22.2553 132.434 22.2553 128.726 22.2553C128.726 20.8886 128.726 19.5332 128.726 18.1665C132.422 18.1665 136.118 18.1665 139.825 18.1665Z" fill="black"></path><path d="M165.561 10.5477V7.99743H166.853C166.957 7.99743 167.07 8.02738 167.192 8.08728C167.314 8.14488 167.418 8.23472 167.503 8.35682C167.591 8.47662 167.634 8.62867 167.634 8.81297C167.634 8.99958 167.589 9.15854 167.5 9.28986C167.41 9.41887 167.3 9.51678 167.171 9.58359C167.045 9.6504 166.925 9.68381 166.812 9.68381H165.879V9.26912H166.639C166.715 9.26912 166.797 9.23111 166.884 9.15509C166.974 9.07906 167.019 8.96502 167.019 8.81297C167.019 8.65632 166.974 8.55034 166.884 8.49505C166.797 8.43976 166.72 8.41212 166.653 8.41212H166.121V10.5477H165.561ZM167.102 9.34515L167.738 10.5477H167.123L166.501 9.34515H167.102ZM166.529 12.0682C166.146 12.0682 165.788 11.9968 165.454 11.854C165.12 11.7111 164.826 11.513 164.573 11.2596C164.319 11.0062 164.121 10.7124 163.978 10.3784C163.835 10.0443 163.764 9.68611 163.764 9.30368C163.764 8.92125 163.835 8.56301 163.978 8.22896C164.121 7.89491 164.319 7.60118 164.573 7.34776C164.826 7.09435 165.12 6.89622 165.454 6.75339C165.788 6.61055 166.146 6.53913 166.529 6.53913C166.911 6.53913 167.269 6.61055 167.603 6.75339C167.937 6.89622 168.231 7.09435 168.484 7.34776C168.738 7.60118 168.936 7.89491 169.079 8.22896C169.222 8.56301 169.293 8.92125 169.293 9.30368C169.293 9.68611 169.222 10.0443 169.079 10.3784C168.936 10.7124 168.738 11.0062 168.484 11.2596C168.231 11.513 167.937 11.7111 167.603 11.854C167.269 11.9968 166.911 12.0682 166.529 12.0682ZM166.529 11.4047C166.916 11.4047 167.268 11.3103 167.586 11.1214C167.904 10.9325 168.157 10.679 168.346 10.3611C168.535 10.0432 168.63 9.69072 168.63 9.30368C168.63 8.91664 168.535 8.56416 168.346 8.24624C168.157 7.92832 167.904 7.6749 167.586 7.48599C167.268 7.29708 166.916 7.20263 166.529 7.20263C166.141 7.20263 165.789 7.29708 165.471 7.48599C165.153 7.6749 164.9 7.92832 164.711 8.24624C164.522 8.56416 164.427 8.91664 164.427 9.30368C164.427 9.69072 164.522 10.0432 164.711 10.3611C164.9 10.679 165.153 10.9325 165.471 11.1214C165.789 11.3103 166.141 11.4047 166.529 11.4047Z" fill="black"></path></g><defs><clipPath id="clip0_1_2611"><rect width="170" height="25" fill="white" transform="translate(0 5.48999)"></rect></clipPath></defs></svg> 